<svg xmlns="http://www.w3.org/2000/svg" xmlns:xlink="http://www.w3.org/1999/xlink" width="73" height="73" version="1.1" viewBox="0 0 73 73"><title>build-tools/css-pre-processors</title><desc>Created with Sketch.</desc><g id="build-tools/css-pre-processors" fill="none" fill-rule="evenodd" stroke="none" stroke-width="1"><g id="container" fill="#FFF" fill-rule="nonzero" stroke="#34475C" stroke-width="2" transform="translate(2.000000, 2.000000)"><rect id="mask" width="71" height="71" x="-1" y="-1" rx="14"/></g><g id="microwave-oven" fill-rule="nonzero" transform="translate(13.000000, 19.000000)"><polygon id="Shape" fill="#F6BB00" points="0 0 47 0 47 31.603 0 31.603"/><polygon id="Shape" fill="#EDA600" points="32.414 0 47 0 47 31.603 32.414 31.603"/><polygon id="Shape" fill="#84D8E8" points="3.241 6.483 25.121 6.483 25.121 24.31 3.241 24.31"/><polygon id="Shape" fill="#4D6378" points="32.414 6.483 43.759 6.483 43.759 24.31 32.414 24.31"/><polygon id="Shape" fill="#6DC1D6" points="28.362 6.483 32.414 6.483 32.414 24.31 28.362 24.31"/><polygon id="Shape" fill="#4D6378" points="25.121 4.052 28.362 4.052 28.362 27.552 25.121 27.552"/><polygon id="Shape" fill="#02C26A" points="34.845 8.914 41.328 8.914 41.328 10.534 34.845 10.534"/><g id="Group" fill="#34475C" transform="translate(34.844828, 12.155172)"><polygon id="Shape" points="0 8.103 6.483 8.103 6.483 9.724 0 9.724"/><polygon id="Shape" points="0 0 1.621 0 1.621 1.621 0 1.621"/><polygon id="Shape" points="2.431 0 4.052 0 4.052 1.621 2.431 1.621"/><polygon id="Shape" points="4.862 0 6.483 0 6.483 1.621 4.862 1.621"/><polygon id="Shape" points="0 2.431 1.621 2.431 1.621 4.052 0 4.052"/><polygon id="Shape" points="2.431 2.431 4.052 2.431 4.052 4.052 2.431 4.052"/><polygon id="Shape" points="4.862 2.431 6.483 2.431 6.483 4.052 4.862 4.052"/><polygon id="Shape" points="0 4.862 1.621 4.862 1.621 6.483 0 6.483"/><polygon id="Shape" points="2.431 4.862 4.052 4.862 4.052 6.483 2.431 6.483"/><polygon id="Shape" points="4.862 4.862 6.483 4.862 6.483 6.483 4.862 6.483"/></g><polygon id="Shape" fill="#DE9400" points="44.569 31.603 42.138 34.845 4.862 34.845 2.431 31.603"/><path id="Shape" fill="#E5E7E9" d="M25.1206897,21.8793103 L10.5344828,21.8793103 C9.4598987,21.8793103 8.42932682,21.4524335 7.66948115,20.6925878 C6.90963547,19.9327421 6.48275862,18.9021703 6.48275862,17.8275862 L25.1206897,17.8275862 L25.1206897,21.8793103 Z"/><polygon id="Shape" fill="#D8DBDD" points="12.155 21.879 25.121 21.879 25.121 24.31 12.155 24.31"/><polygon id="Shape" fill="#D8DBDD" points="28.362 17.828 32.414 17.828 32.414 21.879 28.362 21.879"/><polygon id="Shape" fill="#CBCFD2" points="28.362 21.879 32.414 21.879 32.414 24.31 28.362 24.31"/></g></g></svg>